<svg width="120" height="88" viewBox="0 0 120 88" fill="none" xmlns="http://www.w3.org/2000/svg">
<mask id="mask0_desktop_small" style="mask-type:alpha" maskUnits="userSpaceOnUse" x="0" y="0" width="120" height="88">
<path d="M0 0H120V88C117.219 88 115.576 86.372 114.257 85.203C112.954 84.051 112.134 83.398 110.446 83.398C108.759 83.398 107.941 84.051 106.638 85.203C105.318 86.372 103.676 87.826 100.443 87.826C97.213 87.826 95.57 86.372 94.25 85.203C92.95 84.051 92.13 83.398 90.445 83.398C88.763 83.398 87.944 84.051 86.645 85.203C85.326 86.372 83.685 87.826 80.456 87.826C77.228 87.826 75.587 86.372 74.266 85.203C72.966 84.051 72.148 83.398 70.462 83.398C68.779 83.398 67.96 84.051 66.66 85.203C65.342 86.372 63.701 87.826 60.471 87.826C57.241 87.826 55.6 86.372 54.282 85.203C52.982 84.051 52.163 83.398 50.479 83.398C48.796 83.398 47.978 84.051 46.678 85.203C45.36 86.372 43.718 87.826 40.487 87.826C37.259 87.826 35.62 86.372 34.302 85.203C33.001 84.051 32.184 83.398 30.501 83.398C28.82 83.398 28.001 84.051 26.702 85.203C25.386 86.372 23.746 87.826 20.519 87.826C17.288 87.826 15.646 86.372 14.328 85.203C13.028 84.051 12.21 83.398 10.527 83.398C8.844 83.398 8.026 84.051 6.726 85.203C5.407 86.372 3.766 87.826 0 87.826V0Z" fill="#26069C"/>
</mask>
<g mask="url(#mask0_desktop_small)">
<rect x="0" y="-34.1738" width="120" height="157" fill="#2702C2"/>
</g>
</svg>
