<svg width="120" height="88" viewBox="0 0 120 88" fill="none" xmlns="http://www.w3.org/2000/svg">
<mask id="mask0_desktop_small" style="mask-type:alpha" maskUnits="userSpaceOnUse" x="0" y="0" width="120" height="88">
<path d="M0 0C3.766 0 5.407 1.455 6.726 2.623C8.026 3.775 8.844 4.428 10.527 4.428C12.210 4.428 13.028 3.775 14.328 2.623C15.646 1.455 17.288 0 20.519 0C23.746 0 25.386 1.455 26.702 2.623C28.001 3.775 28.820 4.428 30.501 4.428C32.184 4.428 33.001 3.775 34.301 2.623C35.620 1.455 37.259 0 40.487 0C43.718 0 45.360 1.455 46.678 2.623C47.978 3.775 48.796 4.428 50.479 4.428C52.163 4.428 52.982 3.775 54.282 2.623C55.600 1.455 57.241 0 60.471 0C63.701 0 65.342 1.455 66.660 2.623C67.960 3.775 68.779 4.428 70.462 4.428C72.148 4.428 72.966 3.775 74.266 2.623C75.587 1.455 77.228 0 80.456 0C83.685 0 85.326 1.455 86.645 2.623C87.944 3.775 88.763 4.428 90.445 4.428C92.130 4.428 92.950 3.775 94.250 2.623C95.570 1.455 97.213 0 100.443 0C103.676 0 105.318 1.455 106.638 2.623C107.941 3.775 108.759 4.428 110.446 4.428C112.134 4.428 112.954 3.775 114.257 2.623C115.576 1.455 117.219 0 120 0V88C117.219 88 115.576 86.372 114.257 85.203C112.954 84.051 112.134 83.398 110.446 83.398C108.759 83.398 107.941 84.051 106.638 85.203C105.318 86.372 103.676 87.826 100.443 87.826C97.213 87.826 95.570 86.372 94.250 85.203C92.950 84.051 92.130 83.398 90.445 83.398C88.763 83.398 87.944 84.051 86.645 85.203C85.326 86.372 83.685 87.826 80.456 87.826C77.228 87.826 75.587 86.372 74.266 85.203C72.966 84.051 72.148 83.398 70.462 83.398C68.779 83.398 67.960 84.051 66.660 85.203C65.342 86.372 63.701 87.826 60.471 87.826C57.241 87.826 55.600 86.372 54.282 85.203C52.982 84.051 52.163 83.398 50.479 83.398C48.796 83.398 47.978 84.051 46.678 85.203C45.360 86.372 43.718 87.826 40.487 87.826C37.259 87.826 35.620 86.372 34.302 85.203C33.001 84.051 32.184 83.398 30.501 83.398C28.820 83.398 28.001 84.051 26.702 85.203C25.386 86.372 23.746 87.826 20.519 87.826C17.288 87.826 15.646 86.372 14.328 85.203C13.028 84.051 12.210 83.398 10.527 83.398C8.844 83.398 8.026 84.051 6.726 85.203C5.407 86.372 3.766 87.826 0 87.826V0Z" fill="#26069C"/>
</mask>
<g mask="url(#mask0_desktop_small)">
<rect x="0" y="-34.1738" width="120" height="157" fill="#2702C2"/>
</g>
</svg>